<?xml version="1.0" encoding="utf-8"?>
<!-- Generator: Adobe Illustrator 26.3.1, SVG Export Plug-In . SVG Version: 6.00 Build 0)  -->
<svg version="1.1" id="Layer_1" xmlns="http://www.w3.org/2000/svg" xmlns:xlink="http://www.w3.org/1999/xlink" x="0px" y="0px"
	 viewBox="0 0 213.05 39.01" style="enable-background:new 0 0 213.05 39.01;" xml:space="preserve">
<g>
	<path d="M21.23,6.57c0.42,0.11,0.71,0.25,0.88,0.45s0.25,0.47,0.25,0.82v7.73H8.53V7.84c0-0.35,0.08-0.62,0.25-0.82
		s0.46-0.34,0.88-0.45V6.01H2.16v0.56c0.42,0.12,0.71,0.27,0.88,0.46s0.25,0.46,0.25,0.81v20.34c0,0.35-0.08,0.62-0.25,0.81
		s-0.46,0.34-0.88,0.46v0.56h7.49v-0.56c-0.41-0.11-0.7-0.25-0.87-0.45s-0.25-0.47-0.25-0.82v-8.65h13.83v8.65
		c0,0.35-0.08,0.62-0.25,0.82s-0.46,0.34-0.87,0.45v0.56h7.49v-0.56c-0.42-0.12-0.71-0.27-0.88-0.46s-0.25-0.46-0.25-0.81V7.84
		c0-0.35,0.08-0.62,0.25-0.81s0.46-0.34,0.88-0.46V6.01h-7.49V6.57z"/>
	<path d="M51.52,12.29c-2.09-1.59-4.7-2.39-7.83-2.39c-3.1,0.04-5.68,0.83-7.76,2.39c-2.51,1.89-3.76,4.51-3.76,7.88
		c0,3.33,1.25,5.95,3.76,7.88c2.06,1.59,4.66,2.39,7.79,2.39c3.13,0,5.73-0.8,7.79-2.39c2.5-1.92,3.75-4.49,3.75-7.72
		C55.27,16.89,54.02,14.21,51.52,12.29z M48.69,24.73c-1.28,1.31-2.93,1.97-4.96,1.97c-2.04,0-3.7-0.66-4.98-1.97
		c-1.18-1.22-1.78-2.74-1.78-4.57c0-1.84,0.59-3.37,1.78-4.59c1.28-1.3,2.93-1.95,4.96-1.95c2.03,0.02,3.69,0.67,4.98,1.95
		c1.18,1.18,1.78,2.74,1.78,4.68C50.47,22.03,49.87,23.53,48.69,24.73z"/>
	<path d="M76.2,10.81c0.57,0.13,0.86,0.43,0.86,0.91c0,0.39-0.28,1.04-0.84,1.97l-4.95,8.78l-4.91-8.91c-0.4-0.69-0.6-1.28-0.6-1.76
		c0-0.49,0.28-0.83,0.83-1v-0.49h-8.32v0.49c0.42,0.12,0.71,0.27,0.88,0.47s0.25,0.47,0.25,0.83v16.1c0,0.36-0.08,0.64-0.25,0.84
		s-0.46,0.35-0.87,0.46v0.49h6.54v-0.49c-0.42-0.13-0.71-0.29-0.88-0.48s-0.25-0.47-0.25-0.83V17.06l7.18,12.95l7.6-12.95v11.16
		c0,0.36-0.08,0.65-0.25,0.84c-0.17,0.2-0.46,0.35-0.87,0.46v0.49h6.96v-0.49c-0.42-0.12-0.71-0.27-0.88-0.47
		c-0.16-0.2-0.25-0.48-0.25-0.84V12.11c0-0.36,0.08-0.64,0.25-0.83s0.46-0.35,0.88-0.47v-0.49H76.2V10.81z"/>
	<path d="M106.92,26.2c-0.19,0.16-0.47,0.24-0.83,0.24h-12.5v-4.8H101c0.38,0,0.66,0.08,0.85,0.25c0.19,0.17,0.35,0.46,0.47,0.87
		h0.47v-5.68h-0.47c-0.13,0.42-0.29,0.71-0.48,0.88s-0.47,0.25-0.83,0.25h-7.42v-4.32h11.95c0.38,0,0.66,0.08,0.85,0.24
		s0.35,0.46,0.47,0.88h0.47V9.19h-0.47c-0.12,0.42-0.27,0.71-0.47,0.88s-0.48,0.25-0.85,0.25H87.75v0.49
		c0.42,0.13,0.71,0.29,0.88,0.47s0.25,0.46,0.25,0.83v16.1c0,0.36-0.08,0.64-0.25,0.84s-0.46,0.35-0.87,0.46v0.49h18.33
		c0.36,0,0.64,0.08,0.84,0.25s0.35,0.46,0.46,0.87h0.49v-5.82h-0.49C107.27,25.74,107.11,26.03,106.92,26.2z"/>
	<path d="M130.36,6.57c0.42,0.11,0.71,0.25,0.88,0.45s0.25,0.47,0.25,0.82v7.73h-13.83V7.84c0-0.35,0.08-0.62,0.25-0.82
		s0.46-0.34,0.88-0.45V6.01h-7.49v0.56c0.42,0.12,0.71,0.27,0.88,0.46s0.25,0.46,0.25,0.81v20.34c0,0.35-0.08,0.62-0.25,0.81
		s-0.46,0.34-0.88,0.46v0.56h7.49v-0.56c-0.41-0.11-0.7-0.25-0.87-0.45s-0.25-0.47-0.25-0.82v-8.65h13.83v8.65
		c0,0.35-0.08,0.62-0.25,0.82s-0.46,0.34-0.87,0.45v0.56h7.49v-0.56c-0.42-0.12-0.71-0.27-0.88-0.46s-0.25-0.46-0.25-0.81V7.84
		c0-0.35,0.08-0.62,0.25-0.81s0.46-0.34,0.88-0.46V6.01h-7.49V6.57z"/>
	<path d="M160.9,26.2c-0.19,0.16-0.47,0.24-0.83,0.24h-12.5v-4.8h7.42c0.38,0,0.66,0.08,0.85,0.25c0.19,0.17,0.35,0.46,0.47,0.87
		h0.47v-5.68h-0.47c-0.13,0.42-0.29,0.71-0.48,0.88s-0.47,0.25-0.83,0.25h-7.42v-4.32h11.95c0.38,0,0.66,0.08,0.85,0.24
		s0.35,0.46,0.47,0.88h0.47V9.19h-0.47c-0.12,0.42-0.27,0.71-0.47,0.88s-0.48,0.25-0.85,0.25h-17.79v0.49
		c0.42,0.13,0.71,0.29,0.88,0.47s0.25,0.46,0.25,0.83v16.1c0,0.36-0.08,0.64-0.25,0.84s-0.46,0.35-0.87,0.46v0.49h18.33
		c0.36,0,0.64,0.08,0.84,0.25s0.35,0.46,0.46,0.87h0.49v-5.82h-0.49C161.25,25.74,161.09,26.03,160.9,26.2z"/>
	<path d="M184.24,26.9l-3.73-5.19c1.95-0.4,3.35-1.05,4.23-1.94s1.31-2.14,1.31-3.74c0-2.1-0.71-3.61-2.13-4.54
		c-0.69-0.45-1.48-0.75-2.36-0.92s-2.16-0.25-3.83-0.25h-12.9v0.49c0.42,0.13,0.71,0.29,0.88,0.47s0.25,0.46,0.25,0.83v16.1
		c0,0.36-0.08,0.64-0.25,0.84s-0.46,0.35-0.87,0.46v0.49h6.96v-0.49c-0.42-0.13-0.71-0.29-0.88-0.48s-0.25-0.47-0.25-0.83v-6.28
		h4.72l3.93,5.63c0.38,0.53,0.56,0.92,0.56,1.17c0,0.36-0.3,0.63-0.92,0.79v0.49h8.28v-0.49c-0.52-0.09-0.98-0.31-1.38-0.66
		C185.46,28.51,184.92,27.86,184.24,26.9z M177.77,18.35h-7.1v-4.46h7.1c1.3,0,2.21,0.16,2.72,0.49s0.76,0.91,0.76,1.74
		c0,0.94-0.36,1.56-1.09,1.88C179.64,18.23,178.85,18.35,177.77,18.35z"/>
	<path d="M208.02,12.29c-2.09-1.59-4.7-2.39-7.83-2.39c-3.1,0.04-5.68,0.83-7.76,2.39c-2.51,1.89-3.76,4.51-3.76,7.88
		c0,3.33,1.25,5.95,3.76,7.88c2.06,1.59,4.66,2.39,7.79,2.39c3.13,0,5.73-0.8,7.79-2.39c2.5-1.92,3.75-4.49,3.75-7.72
		C211.76,16.89,210.51,14.21,208.02,12.29z M205.19,24.73c-1.28,1.31-2.93,1.97-4.96,1.97c-2.04,0-3.7-0.66-4.98-1.97
		c-1.18-1.22-1.78-2.74-1.78-4.57c0-1.84,0.59-3.37,1.78-4.59c1.28-1.3,2.93-1.95,4.96-1.95c2.03,0.02,3.69,0.67,4.98,1.95
		c1.18,1.18,1.78,2.74,1.78,4.68C206.96,22.03,206.37,23.53,205.19,24.73z"/>
</g>
</svg>
